# Blender v2.76 (sub 0) OBJ File: 'cubemapped_cube.blend'
# www.blender.org
mtllib cubemapped_cube.mtl
o Cube_Cube.001
v -1.000000 -1.000000 -1.000000
v -1.000000 -1.000000 1.000000
v -1.000000 1.000000 -1.000000
v -1.000000 1.000000 1.000000
v 1.000000 -1.000000 -1.000000
v 1.000000 -1.000000 1.000000
v 1.000000 1.000000 -1.000000
v 1.000000 1.000000 1.000000
vt 0.250050 0.333367
vt 0.250050 0.666633
vt 0.000100 0.666633
vt 0.000100 0.333367
vt 0.500000 0.666633
vt 0.500000 0.999900
vt 0.250050 0.999900
vt 0.500000 0.333367
vt 0.749950 0.333367
vt 0.749950 0.666633
vt 0.250050 0.000100
vt 0.500000 0.000100
vt 0.999900 0.333367
vt 0.999900 0.666633
vn -1.000000 -0.000000 0.000000
vn 0.000000 1.000000 -0.000000
vn 1.000000 -0.000000 0.000000
vn 0.000000 -1.000000 0.000000
vn 0.000000 -0.000000 -1.000000
vn 0.000000 0.000000 1.000000
usemtl None
s off
f 2/1/1 4/2/1 3/3/1 1/4/1
f 4/2/2 8/5/2 7/6/2 3/7/2
f 8/5/3 6/8/3 5/9/3 7/10/3
f 6/8/4 2/1/4 1/11/4 5/12/4
f 1/13/5 3/14/5 7/10/5 5/9/5
f 6/8/6 8/5/6 4/2/6 2/1/6
